{
    "asset" : {
        "generator" : "Khronos glTF Blender I/O v1.7.33",
        "version" : "2.0"
    },
    "scene" : 0,
    "scenes" : [
        {
            "name" : "Scene",
            "nodes" : [
                0
            ]
        }
    ],
    "nodes" : [
        {
            "mesh" : 0,
            "name" : "Dresser",
            "scale" : [
                0.972152590751648,
                1.0222222805023193,
                1
            ],
            "translation" : [
                -0.08234691619873047,
                0.1777999997138977,
                -0.2619943618774414
            ]
        }
    ],
    "materials" : [
        {
            "doubleSided" : true,
            "name" : "[Color M00]",
            "pbrMetallicRoughness" : {
                "metallicFactor" : 0,
                "roughnessFactor" : 0.5
            }
        }
    ],
    "meshes" : [
        {
            "name" : "G-No_Name_135",
            "primitives" : [
                {
                    "attributes" : {
                        "POSITION" : 0,
                        "NORMAL" : 1
                    },
                    "indices" : 2,
                    "material" : 0
                }
            ]
        }
    ],
    "accessors" : [
        {
            "bufferView" : 0,
            "componentType" : 5126,
            "count" : 1849,
            "max" : [
                0.4691212475299835,
                0.5839238166809082,
                0.7305679321289062
            ],
            "min" : [
                -0.016330499202013016,
                -0.1754676252603531,
                -0.7496175765991211
            ],
            "type" : "VEC3"
        },
        {
            "bufferView" : 1,
            "componentType" : 5126,
            "count" : 1849,
            "type" : "VEC3"
        },
        {
            "bufferView" : 2,
            "componentType" : 5123,
            "count" : 2592,
            "type" : "SCALAR"
        }
    ],
    "bufferViews" : [
        {
            "buffer" : 0,
            "byteLength" : 22188,
            "byteOffset" : 0
        },
        {
            "buffer" : 0,
            "byteLength" : 22188,
            "byteOffset" : 22188
        },
        {
            "buffer" : 0,
            "byteLength" : 5184,
            "byteOffset" : 44376
        }
    ],
    "buffers" : [
        {
            "byteLength" : 49560,
            "uri" : "dresser.bin"
        }
    ]
}
