{
    "asset" : {
        "generator" : "Khronos glTF Blender I/O v1.7.33",
        "version" : "2.0"
    },
    "scene" : 0,
    "scenes" : [
        {
            "name" : "Scene",
            "nodes" : [
                0
            ]
        }
    ],
    "nodes" : [
        {
            "mesh" : 0,
            "name" : "G-No_Name_064",
            "translation" : [
                0.41243743896484375,
                0.5635624527931213,
                0.2852325439453125
            ]
        }
    ],
    "materials" : [
        {
            "doubleSided" : true,
            "name" : "Material",
            "pbrMetallicRoughness" : {
                "baseColorFactor" : [
                    0.800000011920929,
                    0.800000011920929,
                    0.800000011920929,
                    1
                ],
                "metallicFactor" : 0,
                "roughnessFactor" : 0.4000000059604645
            }
        }
    ],
    "meshes" : [
        {
            "name" : "G-No_Name_064",
            "primitives" : [
                {
                    "attributes" : {
                        "POSITION" : 0,
                        "NORMAL" : 1,
                        "TEXCOORD_0" : 2
                    },
                    "indices" : 3,
                    "material" : 0
                }
            ]
        }
    ],
    "accessors" : [
        {
            "bufferView" : 0,
            "componentType" : 5126,
            "count" : 1967,
            "max" : [
                0.45923319458961487,
                0.2111375331878662,
                0.7496166229248047
            ],
            "min" : [
                -0.01269999984651804,
                -0.5651293396949768,
                -0.7305684089660645
            ],
            "type" : "VEC3"
        },
        {
            "bufferView" : 1,
            "componentType" : 5126,
            "count" : 1967,
            "type" : "VEC3"
        },
        {
            "bufferView" : 2,
            "componentType" : 5126,
            "count" : 1967,
            "type" : "VEC2"
        },
        {
            "bufferView" : 3,
            "componentType" : 5123,
            "count" : 2760,
            "type" : "SCALAR"
        }
    ],
    "bufferViews" : [
        {
            "buffer" : 0,
            "byteLength" : 23604,
            "byteOffset" : 0
        },
        {
            "buffer" : 0,
            "byteLength" : 23604,
            "byteOffset" : 23604
        },
        {
            "buffer" : 0,
            "byteLength" : 15736,
            "byteOffset" : 47208
        },
        {
            "buffer" : 0,
            "byteLength" : 5520,
            "byteOffset" : 62944
        }
    ],
    "buffers" : [
        {
            "byteLength" : 68464,
            "uri" : "dresser.bin"
        }
    ]
}
